<svg width="23" height="21" viewBox="0 0 23 21" fill="none" xmlns="http://www.w3.org/2000/svg">
<path d="M6.9502 19.9998C7.50248 19.9998 7.9502 19.5758 7.9502 19.0526C7.9502 18.5295 7.50248 18.1055 6.9502 18.1055C6.39791 18.1055 5.9502 18.5295 5.9502 19.0526C5.9502 19.5758 6.39791 19.9998 6.9502 19.9998Z" stroke="white" stroke-width="2" stroke-linecap="round" stroke-linejoin="round"/>
<path d="M17.9502 19.9998C18.5025 19.9998 18.9502 19.5758 18.9502 19.0526C18.9502 18.5295 18.5025 18.1055 17.9502 18.1055C17.3979 18.1055 16.9502 18.5295 16.9502 19.0526C16.9502 19.5758 17.3979 19.9998 17.9502 19.9998Z" stroke="white" stroke-width="2" stroke-linecap="round" stroke-linejoin="round"/>
<path d="M1 1.10352H3L5.66 12.8674C5.75758 13.2982 6.01067 13.6834 6.37571 13.9565C6.74075 14.2297 7.19491 14.3737 7.66 14.3639H17.44C17.8952 14.3633 18.3365 14.2155 18.691 13.9451C19.0456 13.6748 19.2921 13.2979 19.39 12.8769L21.04 5.83938H4.07" stroke="white" stroke-width="2" stroke-linecap="square" stroke-linejoin="round"/>
</svg>
